<?xml version="1.0" encoding="utf-8"?>
<!-- Generator: Adobe Illustrator 18.1.1, SVG Export Plug-In . SVG Version: 6.00 Build 0)  -->
<svg version="1.1" id="Layer_1" xmlns="http://www.w3.org/2000/svg" xmlns:xlink="http://www.w3.org/1999/xlink" x="0px" y="0px"
	 viewBox="0 0 852 330" enable-background="new 0 0 852 330" xml:space="preserve">
<g id="Layer_1_1_">
	<path fill="#D8A629" d="M288.9,48.7c-6.8-7-20.7-9.6-32.3-3.5c-0.6-0.7-1.2-1.4-1.8-2c-0.6-0.6-1.3-1.2-2-1.8
		c5.9-11.7,2.7-26.3-4.9-33.7c-6.7-6.5-15.8-6.9-23.7-1c-2.2,1.6-2.6,4.7-1,6.9c1.6,2.2,4.7,2.6,6.9,1c4.1-3.1,7.7-3,10.9,0.2
		c5,4.8,6.8,15.1,2.7,22.7c-1.6-0.3-3.3-0.5-5.1-0.5c-7.9,0-15.7,2.9-20.4,4.7l-1,0.4c-4.2,1.6-8.3,3.2-12.1,4.9
		c-10.2-2.7-21.1-4.6-30.9-4.6c-12.5,0-21.7,3.1-27.4,9.2c-4.8,5.2-6.9,12.2-6.3,21c0.6,8.8,4.3,15.2,10.7,18.7
		c-1.1,2.1-2.2,4.1-3.1,6.3c-11.4,26.2-2.2,48.6-1.8,49.6l0.8,1.8l1.8,0.8c0.4,0.2,10.2,4.4,24.3,4.4c10,0,21.5-2,33.2-8.1
		c0.1,0.1,0.1,0.2,0.2,0.4c2.4,4.7,7.7,10.5,19.1,11.4c1,0.1,2,0.1,3,0.1c10,0,17.7-4,22.3-11.7c7.6-12.7,5.3-33.7,0.6-52
		c2.3-4.8,4.5-10,6.7-15.7c4-10.5,4.2-18.5,2.7-24.5c7.6-4.1,16.7-2.7,20.9,1.6c2.7,2.7,2.5,6.2-0.5,10.2c-1.6,2.2-1.2,5.3,1,6.9
		c0.9,0.7,1.9,1,2.9,1c1.5,0,3-0.7,3.9-2C296.3,62.2,293.7,53.6,288.9,48.7z M242.5,141.1c-3.1,5.2-8.3,7.4-16.1,6.8
		c-7.4-0.5-9.9-3.7-11.1-6.1c-0.2-0.3-0.3-0.7-0.4-1.1c-1.3-3.1-1.6-7-1.3-11.5c0.3-3.1,0.8-6.4,1.7-9.9c1.4-5.6,3.4-11.5,5.7-17.4
		c1.7-4.4,3.7-8.7,5.6-12.9c2.6-5.6,5.4-10.9,7.8-15.3l0.3,0.3c3.7,9.1,7.6,21.5,9.7,33.5C246.8,120.7,247,133.6,242.5,141.1z
		 M150.4,71.8c-0.4-6,0.8-10.5,3.7-13.6c3.8-4,10.5-6.1,20.2-6.1c5.3,0,11.1,0.7,16.9,1.7c12.2,2.2,24.5,6.2,33.2,9.7l0.2,0.2
		c-4.1,2.2-9.4,5-15.3,7.8c-4.1,1.9-8.4,3.9-12.9,5.6c-5.8,2.3-11.8,4.3-17.5,5.7c-3.8,0.9-7.5,1.5-11,1.7c-0.8,0-1.6,0.1-2.3,0.1
		c-3.8,0-6.7-0.5-9-1.7C152.7,81.1,150.8,77.5,150.4,71.8z M216.6,78.9l2.7,2.7c-1.9,4-3.9,8.3-5.8,12.7l-9.6-9.6
		C208.3,82.8,212.6,80.9,216.6,78.9z M186.8,90.9l20.5,20.5c-1.5,5.2-2.7,10.4-3.2,15.3l-32.5-32.5
		C176.5,93.6,181.6,92.4,186.8,90.9z M179.7,143.9l-26.8-26.8c0.6-4.6,1.8-9.5,3.9-14.6l37.9,37.9
		C189.5,142.3,184.4,143.4,179.7,143.9z M249.1,74.9c-0.6,1.6-1.2,3.1-1.8,4.7c-2.6-7.5-5.2-13.8-7.1-17.6c-0.2-0.9-0.7-1.7-1.4-2.4
		c-0.6-0.7-1.5-1.2-2.4-1.4c-3.9-2-9.6-4.4-16.3-6.7c0.2-0.1,0.4-0.2,0.7-0.3l1-0.4c4.1-1.5,10.8-4.1,16.9-4.1c4,0,7.1,1.1,9.3,3.3
		C253,55.2,253.4,63.6,249.1,74.9z"/>
	<g>
		<path fill="#D8A629" d="M129.2,165.1c-1.9,0-3.7-1.1-4.5-2.9c-1.1-2.5,0-5.4,2.5-6.5c4.5-2,7.2-3.3,7.2-3.3
			c2.4-1.2,5.4-0.2,6.6,2.2c1.2,2.4,0.2,5.4-2.2,6.6c0,0-2.8,1.4-7.6,3.5C130.5,165,129.9,165.1,129.2,165.1z"/>
		<path fill="#D8A629" d="M33.2,244.3c-2.1,0-4-1.3-4.7-3.4c-0.9-2.6,0.5-5.4,3.1-6.2c5.3-1.8,10.2-3.8,14.6-6
			c2.4-1.2,5.4-0.2,6.6,2.2c1.2,2.4,0.2,5.4-2.2,6.6c-4.9,2.4-10.2,4.7-15.9,6.6C34.3,244.3,33.7,244.3,33.2,244.3z M62.4,229.1
			c-1.4,0-2.8-0.6-3.7-1.7c-1.8-2.1-1.5-5.2,0.6-6.9c0.7-0.6,1.3-1.2,1.9-1.7c3.3-3.2,6.3-6.4,9.1-9.6c1.8-2,4.9-2.2,6.9-0.4
			c2,1.8,2.2,4.9,0.4,6.9c-3,3.4-6.2,6.8-9.7,10.2c-0.7,0.7-1.6,1.5-2.4,2.2C64.7,228.7,63.6,229.1,62.4,229.1z M84.2,204.3
			c-1,0-1.9-0.3-2.8-0.9c-2.2-1.5-2.8-4.6-1.3-6.8c3.1-4.6,5.7-9.2,7.7-13.6c1.1-2.5,4-3.6,6.5-2.5c2.5,1.1,3.6,4,2.5,6.5
			c-2.2,5-5.1,10.1-8.5,15.2C87.3,203.5,85.7,204.3,84.2,204.3z M65.8,183.4c-2.5,0-4.7-1.9-4.9-4.5c-0.2-2.7,1.8-5.1,4.5-5.3
			c4.9-0.4,10.2-1.2,15.7-2.4c2.6-0.6,5.3,1.1,5.8,3.8s-1.1,5.3-3.8,5.8c-6,1.3-11.7,2.2-17,2.6C66.1,183.4,66,183.4,65.8,183.4z
			 M49.3,183.2c-0.2,0-0.4,0-0.6,0c-6.7-0.9-12.6-2.8-17.5-5.7c-2.3-1.4-3.1-4.4-1.7-6.7c1.4-2.3,4.4-3.1,6.7-1.7
			c3.7,2.2,8.3,3.7,13.8,4.4c2.7,0.4,4.6,2.8,4.2,5.5C53.8,181.4,51.7,183.2,49.3,183.2z M98.2,176.7c-2.1,0-4.1-1.4-4.7-3.5
			c-0.1-0.3-0.2-0.7-0.2-1c-0.9-1-1.3-2.4-1-3.9c0.4-2.4,0.6-4.9,0.6-7.2c0-2.6-0.2-5.1-0.7-7.5c-0.5-2.7,1.2-5.2,3.9-5.8
			c2.6-0.5,5.2,1.2,5.8,3.9c0.6,3.1,0.9,6.2,0.9,9.4c0,1.4-0.1,2.7-0.2,4.1c3.2-1,6.4-2.2,9.6-3.4c2.5-1,5.4,0.3,6.3,2.9
			c1,2.5-0.3,5.4-2.9,6.3c-5.4,2-10.8,3.9-16,5.4C99.1,176.7,98.7,176.7,98.2,176.7z M22.6,166.2c-1.8,0-3.5-1-4.4-2.7
			c-2.3-4.6-3.8-10-4.4-16c-0.1-0.6-0.1-1.2-0.2-1.8c-0.2-2.7,1.9-5,4.6-5.2c2.7-0.2,5,1.9,5.2,4.6c0,0.5,0.1,1,0.1,1.5
			c0.5,4.8,1.6,9.1,3.4,12.6c1.2,2.4,0.2,5.4-2.2,6.6C24.1,166,23.3,166.2,22.6,166.2z M90.8,142.4c-1.6,0-3.2-0.8-4.1-2.2
			c-2.6-4-6-7.7-10.1-10.8c-2.2-1.6-2.6-4.7-0.9-6.9c1.6-2.2,4.7-2.6,6.9-0.9c5,3.8,9.2,8.2,12.4,13.2c1.5,2.3,0.8,5.3-1.4,6.8
			C92.6,142.1,91.7,142.4,90.8,142.4z M21.2,134.1c-0.7,0-1.4-0.2-2.1-0.5c-2.5-1.2-3.5-4.1-2.3-6.5c2.8-6,7.6-10.8,13.8-13.8
			c2.4-1.2,5.4-0.2,6.6,2.3c1.2,2.4,0.2,5.4-2.3,6.6c-4.2,2-7.3,5.1-9.2,9.1C24.8,133,23.1,134.1,21.2,134.1z M65,122.5
			c-0.6,0-1.1-0.1-1.7-0.3c-4.8-1.7-9.9-2.7-14.6-2.8c-2.7-0.1-4.9-2.3-4.8-5c0.1-2.7,2.3-4.7,5-4.8c5.8,0.1,11.9,1.3,17.8,3.4
			c2.6,0.9,3.9,3.7,3,6.3C68.9,121.3,67,122.5,65,122.5z"/>
		<path fill="#D8A629" d="M8.9,250.1c-2.4,0-4.5-1.8-4.9-4.2c-0.4-2.7,1.5-5.2,4.2-5.6c2.6-0.4,5.2-0.8,7.8-1.3
			c2.7-0.5,5.3,1.2,5.8,3.8c0.5,2.7-1.2,5.3-3.8,5.8c-2.8,0.6-5.6,1.1-8.4,1.4C9.4,250.1,9.1,250.1,8.9,250.1z"/>
	</g>
</g>
<text transform="matrix(1 0 0 1 95.9552 291.5381)"><tspan x="0" y="0" font-family="'inglobal'" font-size="163.0606" letter-spacing="-9">B</tspan><tspan x="80.9" y="0" font-family="'inglobal'" font-size="163.0606" letter-spacing="-16">r</tspan><tspan x="118.2" y="0" font-family="'inglobal'" font-size="163.0606" letter-spacing="-9">e</tspan><tspan x="191.9" y="0" font-family="'inglobal'" font-size="163.0606" letter-spacing="-13">w</tspan><tspan x="299.9" y="0" font-family="'inglobal'" font-size="163.0606" letter-spacing="-9">e</tspan><tspan x="373.6" y="0" font-family="'inglobal'" font-size="163.0606" letter-spacing="-6">r</tspan><tspan x="420.7" y="0" font-family="'inglobal'" font-size="163.0606">y</tspan><tspan x="505.2" y="0" font-family="'inglobal'" font-size="163.0606" letter-spacing="-32"> </tspan><tspan x="513.1" y="0" font-family="'inglobal'" font-size="163.0606" letter-spacing="-6">B</tspan><tspan x="597.2" y="0" font-family="'inglobal'" font-size="163.0606" letter-spacing="-9">e</tspan><tspan x="671" y="0" font-family="'inglobal'" font-size="163.0606">e</tspan></text>
<text transform="matrix(1 0 0 1 104.1666 317.3182)" fill="#D7A629" font-family="'inglobal'" font-size="29.5992">Giving you the Buzz on craft beer</text>
</svg>
